{"title":"Interstellar 2014 720p CAMRip x264 AAC","uid":11426217,"size":1217069853,"categoryP":"video","categoryS":"movies","magnet":"?xt=urn:btih:32680d7846bec0c9c46db2d62816950548cba0c2&amp;dn=Interstellar+2014+720p+CAMRip+x264+AAC&amp;tr=udp%3A%2F%2Ftracker.openbittorrent.com%3A80&amp;tr=udp%3A%2F%2Fopen.demonii.com%3A1337&amp;tr=udp%3A%2F%2Ftracker.coppersurfer.tk%3A6969&amp;tr=udp%3A%2F%2Fexodus.desync.com%3A6969","seeders":4,"leechers":0,"uploader":"zloitoi","files":1,"time":1415668944,"description":"General\nFormat                         : MPEG-4\nFormat profile                 : Base Media\nCodec ID                       : isom\nFile size                      : 1.13 GiB\nDuration                       : 2h 43mn\nOverall bit rate mode          : Variable\nOverall bit rate               : 995 Kbps\nEncoded date                   : UTC 2014-11-10 21:14:43\nTagged date                    : UTC 2014-11-10 21:14:43\nWriting application            : FormatFactory : www.pcfreetime.com\n\nVideo\nID                             : 1\nFormat                         : MPEG-4 Visual\nFormat profile                 : Simple@L1\nFormat settings, BVOP          : No\nFormat settings, QPel          : No\nFormat settings, GMC           : No warppoints\nFormat settings, Matrix        : Default (H.263)\nCodec ID                       : 20\nDuration                       : 2h 43mn\nBit rate mode                  : Variable\nBit rate                       : 899 Kbps\nMaximum bit rate               : 5 587 Kbps\nWidth                          : 1 280 pixels\nHeight                         : 536 pixels\nDisplay aspect ratio           : 2.40:1\nFrame rate mode                : Constant\nFrame rate                     : 23.976 fps\nColor space                    : YUV\nChroma subsampling             : 4:2:0\nBit depth                      : 8 bits\nScan type                      : Progressive\nCompression mode               : Lossy\nBits/(Pixel*Frame)             : 0.055\nStream size                    : 1.02 GiB (90%)\nWriting library                : Lavc53.8.0\nEncoded date                   : UTC 2014-11-10 21:14:43\nTagged date                    : UTC 2014-11-10 21:14:58\n\nAudio\nID                             : 2\nFormat                         : AAC\nFormat/Info                    : Advanced Audio Codec\nFormat profile                 : LC\nCodec ID                       : 40\nDuration                       : 2h 43mn\nBit rate mode                  : Variable\nBit rate                       : 93.6 Kbps\nMaximum bit rate               : 151 Kbps\nChannel(s)                     : 2 channels\nChannel positions              : Front: L R\nSampling rate                  : 48.0 KHz\nCompression mode               : Lossy\nStream size                    : 109 MiB (9%)\nEncoded date                   : UTC 2014-11-10 21:14:53\nTagged date                    : UTC 2014-11-10 21:14:58","torrent":{"xt":"urn:btih:32680d7846bec0c9c46db2d62816950548cba0c2","amp;dn":"Interstellar+2014+720p+CAMRip+x264+AAC","amp;tr":["udp%3A%2F%2Ftracker.openbittorrent.com%3A80","udp%3A%2F%2Fopen.demonii.com%3A1337","udp%3A%2F%2Ftracker.coppersurfer.tk%3A6969","udp%3A%2F%2Fexodus.desync.com%3A6969"],"infoHash":"32680d7846bec0c9c46db2d62816950548cba0c2","infoHashBuffer":{"type":"Buffer","data":[50,104,13,120,70,190,192,201,196,109,178,214,40,22,149,5,72,203,160,194]},"announce":[],"urlList":[]}}